<svg xmlns="http://www.w3.org/2000/svg" width="378" height="378" viewBox="0 0 100 100"><g transform="matrix(1.14303 0 0 1.14303 -16 -81.8)"><path d="M34.7 85.5S31 82 29 81.5c-2-.7-4-.7-5.7.2a9.3 9.3 0 0 0-3.7 5c-.5 1.5.1 4.5 1.4 6.5 1.2 2 5.8 4.6 5.8 4.6zM88.5 97s4.6-2.3 5.8-4c1.3-1.8 2-3.5 1.7-5.5-.3-2-2-4.2-3.3-5.1-1.3-1-4.4-1.5-6.7-1s-6.3 4-6.3 4z" style="fill:#03b2d1;fill-opacity:1;stroke:#013043;stroke-width:2;stroke-linecap:butt;stroke-linejoin:miter;stroke-miterlimit:4;stroke-dasharray:none;stroke-opacity:1"/><path d="M56.5 78.2c-18-.2-27 9.2-30.3 18.8a60.5 60.5 0 0 0-1.8 20.2c.5 8.9 1.7 19.7 5.1 24.2 4.4 5.5 10 9.3 16.7 10.1 6.8.9 11.5 1.3 20.6.3 9.1-1 15.7-3.4 20.6-14.7a60.6 60.6 0 0 0 4-19.8 43 43 0 0 0-3-21.6c-6-11.7-13.8-17.4-31.9-17.5Z" style="fill:#04b1d5;fill-opacity:1;stroke:#00293c;stroke-width:2;stroke-linecap:butt;stroke-linejoin:miter;stroke-miterlimit:4;stroke-dasharray:none;stroke-opacity:1"/><ellipse cx="39.7" cy="104.8" rx="10.9" ry="11.8" style="fill:#fbfbf8;fill-opacity:1;fill-rule:evenodd;stroke:#00293c;stroke-width:2.15441;stroke-linejoin:round;stroke-miterlimit:4;stroke-dasharray:none;stroke-opacity:1;paint-order:markers fill stroke"/><ellipse cx="75.6" cy="104.4" rx="10.9" ry="11.8" style="fill:#fbfbf8;fill-opacity:1;fill-rule:evenodd;stroke:#00293c;stroke-width:2.15441;stroke-linejoin:round;stroke-miterlimit:4;stroke-dasharray:none;stroke-opacity:1;paint-order:markers fill stroke"/><ellipse cx="42" cy="104.8" rx="3.3" ry="3.4" style="fill:#00293c;fill-opacity:1;fill-rule:evenodd;stroke:#00293c;stroke-width:2.34469;stroke-linejoin:round;stroke-miterlimit:4;stroke-dasharray:none;stroke-opacity:1;paint-order:markers fill stroke"/><ellipse cx="73.3" cy="104.9" rx="3.3" ry="3.4" style="fill:#00293c;fill-opacity:1;fill-rule:evenodd;stroke:#00293c;stroke-width:2.34469;stroke-linejoin:round;stroke-miterlimit:4;stroke-dasharray:none;stroke-opacity:1;paint-order:markers fill stroke"/><ellipse cx="43.3" cy="104.1" rx="1.1" ry="1.2" style="fill:#fff;fill-opacity:1;fill-rule:evenodd;stroke:none;stroke-width:4.32049;stroke-linejoin:round;stroke-miterlimit:4;stroke-dasharray:none;stroke-opacity:1;paint-order:markers fill stroke"/><ellipse cx="74.3" cy="104" rx="1.1" ry="1.2" style="fill:#fff;fill-opacity:1;fill-rule:evenodd;stroke:none;stroke-width:4.32049;stroke-linejoin:round;stroke-miterlimit:4;stroke-dasharray:none;stroke-opacity:1;paint-order:markers fill stroke"/><path d="m57.5 122.8.1 6.4s-2 .6-3 .4c-1-.1-1.8 0-2.6-1.2-.8-1.1-.1-5.2-.1-5.2.4-.2 3.5-.7 5.6-.7 2 0 5.4.7 6 .9 0 0 .2 3.4-.1 4.6-.4 1.1-1.4 1.4-2.2 1.6a5.8 5.8 0 0 1-3.6-.4z" style="fill:#fff;stroke:#013043;stroke-width:1.5;stroke-linecap:butt;stroke-linejoin:miter;stroke-miterlimit:4;stroke-dasharray:none;stroke-opacity:1"/><path d="M63.5 113.5s3.5 2.8 3.7 4.4c.2 1.7-.8 3.9-2.5 5-1.8 1-4.5-.7-6.8-.6-2.3.2-4.9 1.3-6.7.6-1.9-.7-2.8-2.3-3-4.3-.2-2 3.7-5.5 3.7-5.5" style="fill:none;stroke:#013043;stroke-width:2;stroke-linecap:butt;stroke-linejoin:miter;stroke-miterlimit:4;stroke-dasharray:none;stroke-opacity:1"/><ellipse cx="57.6" cy="113.6" rx="6.6" ry="4.8" style="fill:#013043;fill-opacity:1;fill-rule:evenodd;stroke:none;stroke-width:4.97823;stroke-linejoin:round;stroke-miterlimit:4;stroke-dasharray:none;stroke-opacity:1;paint-order:markers fill stroke"/></g></svg>